<?xml version="1.0" encoding="iso-8859-1"?>
<!-- Generator: Adobe Illustrator 16.0.0, SVG Export Plug-In . SVG Version: 6.00 Build 0)  -->
<!DOCTYPE svg PUBLIC "-//W3C//DTD SVG 1.1//EN" "http://www.w3.org/Graphics/SVG/1.1/DTD/svg11.dtd">
<svg version="1.1" id="Capa_1" xmlns="http://www.w3.org/2000/svg" xmlns:xlink="http://www.w3.org/1999/xlink" x="0px" y="0px"
	 width="405.986px" height="405.986px" viewBox="0 0 405.986 405.986" style="enable-background:new 0 0 405.986 405.986;"
	 xml:space="preserve">
<g>
	<g>
		<path d="M131.998,150.263v75.051c0,5.721,4.641,10.353,10.356,10.353h31.67h14.286h15.736h14.286h31.671
			c5.714,0,10.354-4.632,10.354-10.353v-75.051c6.233-1.704,10.819-7.405,10.819-14.186v-19.359c0-8.126-6.585-14.713-14.713-14.713
			H239.56c7.061-6.085,8.821-12.494,9.022-16.898c0.264-5.772-1.934-11.771-6.335-17.344c-5.441-6.886-12.107-10.528-19.257-10.528
			c-5.38,0-10.735,2.076-15.909,6.168c-4.158,3.283-7.967,7.722-10.903,12.57c-2.937-4.849-6.745-9.287-10.904-12.57
			c-5.173-4.092-10.529-6.168-15.91-6.168c-7.149,0-13.814,3.643-19.256,10.528c-4.401,5.573-6.598,11.571-6.335,17.344
			c0.2,4.404,1.963,10.812,9.023,16.898h-16.905c-8.128,0-14.713,6.587-14.713,14.713v19.359
			C121.18,142.857,125.765,148.558,131.998,150.263z M203.598,87.318c2.153-5.522,6.275-11.156,10.767-14.706
			c3.047-2.411,5.953-3.634,8.627-3.634c4.336,0,7.853,3.298,10.046,6.066c1.834,2.319,3.979,5.854,3.812,9.534
			c-0.146,3.195-2.08,6.291-5.756,9.199c-5.554,4.387-13.714,7.331-20.319,7.331c-2.093,0-5.861-0.322-7.571-2.482
			c-0.703-0.888-1.083-2.149-1.144-3.674c0.001-0.329,0.001-0.662-0.004-0.999C202.134,92.029,202.646,89.764,203.598,87.318z
			 M204.047,121.386v100.617h-15.736V121.386H204.047z M159.32,75.045c2.193-2.769,5.71-6.066,10.045-6.066
			c2.675,0,5.581,1.223,8.627,3.634c4.489,3.55,8.613,9.184,10.768,14.706c0.951,2.446,1.465,4.711,1.54,6.636
			c-0.003,0.337-0.003,0.67-0.003,0.999c-0.06,1.524-0.439,2.786-1.143,3.674c-1.712,2.16-5.479,2.482-7.571,2.482
			c-6.607,0-14.767-2.944-20.319-7.331c-3.676-2.908-5.61-6.004-5.756-9.199C155.342,80.899,157.486,77.364,159.32,75.045z"/>
		<path d="M402.341,253.093c-27.2-5.271-53.046-8.969-79.012-11.306c-5.164-0.465-10.392-0.7-15.542-0.7
			c-33.736,0-61.283,9.725-87.926,19.131c-7.507,2.649-18.473,5.301-30.083,8.105c-16.946,4.096-34.469,8.331-42.732,12.998
			c-7.484,4.229-10.303,9.39-8.376,15.345c2.81,8.687,14.416,12.56,37.631,12.56c15.517,0,34.684-1.724,54.975-3.547
			c3.261-0.293,6.576-0.592,9.918-0.887c-27.75,7.473-51.425,11.256-70.485,11.256c-21.89,0-36.169-5.087-40.207-14.324
			c-2.852-6.524-0.151-14.734,7.606-23.116l1.151-1.244l-1.645-0.406c-0.853-0.211-85.483-21.106-101.709-24.665
			c-3.578-0.785-7.212-1.184-10.801-1.184c-12.894,0-23.373,5.123-24.916,12.181c-0.746,3.409,0.105,10.097,14.211,16.575
			l123.708,52.1c4.13,1.526,8.372,3.293,12.863,5.16c13.735,5.717,27.938,11.627,41.135,11.627c5.491,0,10.746-0.571,16.064-1.748
			c9.577-2.119,33.762-9.283,59.367-16.867c24.925-7.383,50.7-15.019,61.012-17.338c8.093-1.822,16.434-2.707,25.499-2.707
			c15.629,0,30.966,2.629,46.61,5.557l5.328,0.996v-62.842L402.341,253.093z"/>
	</g>
</g>
<g>
</g>
<g>
</g>
<g>
</g>
<g>
</g>
<g>
</g>
<g>
</g>
<g>
</g>
<g>
</g>
<g>
</g>
<g>
</g>
<g>
</g>
<g>
</g>
<g>
</g>
<g>
</g>
<g>
</g>
</svg>
